<svg width="325" height="402" viewBox="0 0 325 402" fill="none" xmlns="http://www.w3.org/2000/svg">
<path fill-rule="evenodd" clip-rule="evenodd" d="M79.5686 173V63C49.1929 63 24.5686 87.6243 24.5686 118C24.5686 148.376 49.1929 173 79.5686 173Z" fill="#FF3E00"/>
<path fill-rule="evenodd" clip-rule="evenodd" d="M79.5686 63L79.5686 173C109.944 173 134.569 148.376 134.569 118C134.569 87.6243 109.944 63 79.5686 63Z" fill="#FF8D00"/>
<path d="M146.569 173V128C146.569 92.1015 175.67 63 211.569 63V108C211.569 143.899 182.467 173 146.569 173Z" fill="#759F36"/>
<path d="M211.569 173H256.569C292.467 173 321.569 143.899 321.569 108H276.569C240.67 108 211.569 137.101 211.569 173Z" fill="#006E38"/>
<path fill-rule="evenodd" clip-rule="evenodd" d="M16.5686 0L79.5686 63L54.5686 63C33.5818 63 16.5686 45.9868 16.5686 25V0Z" fill="#779E32"/>
<path fill-rule="evenodd" clip-rule="evenodd" d="M79.5686 63L16.5686 -3.8147e-06L41.5686 0C62.5554 0 79.5686 17.0132 79.5686 38V63Z" fill="#006D38"/>
<path fill-rule="evenodd" clip-rule="evenodd" d="M127.569 12L107.569 12C96.5229 12 87.5686 20.9543 87.5686 32V52L127.569 12Z" fill="#779E32"/>
<path fill-rule="evenodd" clip-rule="evenodd" d="M87.5686 52H107.569C118.614 52 127.569 43.0457 127.569 32V12L87.5686 52Z" fill="#006D38"/>
<path fill-rule="evenodd" clip-rule="evenodd" d="M264.569 63H244.569C233.523 63 224.569 71.9543 224.569 83V103L264.569 63Z" fill="#779E32"/>
<path fill-rule="evenodd" clip-rule="evenodd" d="M224.569 103H244.569C255.614 103 264.569 94.0457 264.569 83V63L224.569 103Z" fill="#006D38"/>
<path d="M124.569 302C124.569 288.868 121.982 275.864 116.957 263.732C111.931 251.599 104.565 240.575 95.2793 231.289C85.9934 222.003 74.9695 214.638 62.8369 209.612C50.7044 204.587 37.7008 202 24.5686 202L24.5686 302H124.569Z" fill="#353535"/>
<path d="M224.569 302C237.701 302 250.705 299.413 262.837 294.388C274.97 289.362 285.994 281.997 295.279 272.711C304.565 263.425 311.931 252.401 316.957 240.268C321.982 228.136 324.569 215.132 324.569 202L224.569 202V302Z" fill="#C1B189"/>
<path d="M24.5686 302C24.5686 315.132 27.1552 328.136 32.1807 340.268C37.2061 352.401 44.5721 363.425 53.8579 372.711C63.1438 381.997 74.1677 389.362 86.3003 394.388C98.4328 399.413 111.436 402 124.569 402L124.569 302H24.5686Z" fill="#CB8A2A"/>
<circle cx="43.5686" cy="226" r="7" fill="#FFFBFB"/>
<path d="M0 202H25L25 227L0 202Z" fill="#969DA1"/>
<path d="M0 226H25V251L0 226Z" fill="#969DA1"/>
<path d="M174.569 402H124.569L124.569 352L174.569 402Z" fill="#CB8A2A"/>
<path d="M124.569 302H174.569V352L124.569 302Z" fill="#C1B189"/>
<path d="M174.569 352H124.569L124.569 302L174.569 352Z" fill="#373337"/>
<path d="M124.569 252H174.569V302L124.569 252Z" fill="#C1B189"/>
<path d="M174.569 302H124.569L124.569 252L174.569 302Z" fill="#373337"/>
<path d="M124.569 202H174.569V252L124.569 202Z" fill="#C1B189"/>
<path d="M174.569 252L124.569 252L124.569 202L174.569 252Z" fill="#373337"/>
<path d="M174.569 302H224.569V352L174.569 302Z" fill="#C1B189"/>
<path d="M224.569 352H174.569V302L224.569 352Z" fill="#373337"/>
<path d="M174.569 352H224.569V402L174.569 352Z" fill="#C1B189"/>
<path d="M224.569 402H174.569V352L224.569 402Z" fill="#373337"/>
<path d="M174.569 252H224.569V302L174.569 252Z" fill="#C1B189"/>
<path d="M224.569 302H174.569V252L224.569 302Z" fill="#373337"/>
<path d="M174.569 202H224.569V252L174.569 202Z" fill="#C1B189"/>
<path d="M224.569 252L174.569 252V202L224.569 252Z" fill="#373337"/>
<path d="M124.569 352H174.569V402L124.569 352Z" fill="#C1B189"/>
<path d="M324.569 402L224.569 402L224.569 302L324.569 402Z" fill="#373337"/>
</svg>
