<?xml version="1.0" encoding="UTF-8"?>
<svg width="100pt" height="100pt" version="1.1" viewBox="0 0 100 100" xmlns="http://www.w3.org/2000/svg">
 <path fill="#779E32" d="m29.828 55l0.12109 0.17969c0.14844 0.21875 0.30078 0.42969 0.44922 0.64844l17.371 25c0.50781 0.73047 1.3398 1.1641 2.2266 1.1641 0.88672 0 1.7188-0.43359 2.2227-1.1641l17.352-24.957c0.16016-0.23047 0.32813-0.46094 0.48828-0.69922l0.10938-0.16016h0.003906c3.1367-4.8555 4.418-10.68 3.6055-16.406-0.8125-5.7227-3.6641-10.961-8.0312-14.75-4.3633-3.7891-9.9492-5.875-15.73-5.875s-11.367 2.0859-15.734 5.875c-4.3633 3.7891-7.2148 9.0273-8.0273 14.75-0.8125 5.7266 0.46875 11.551 3.6055 16.406zm20.172-23c4.043 0 7.6914 2.4375 9.2383 6.1719 1.5469 3.7383 0.69141 8.0391-2.168 10.898-2.8594 2.8594-7.1602 3.7148-10.898 2.168-3.7344-1.5469-6.1719-5.1953-6.1719-9.2383 0-5.5234 4.4766-10 10-10z"/>
</svg>
